REM DIRINDEX 1\3,1\5,1\6,1\2\7,1\2\8,1\4\9,1\4\10
REM DIRNAME folder01,folder02,folder03,folder04,folder05,folder06,folder07,folder08,folder09,folder10
TITLE ""
FILE "CD2Track06.mp3" MP3
  TRACK 01 AUDIO
    TITLE "9:cjc060_0987"
    INDEX 01 00:00:00
  TRACK 02 AUDIO
    TITLE "10:cjc060_0988"
    INDEX 01 00:01:26
  TRACK 03 AUDIO
    TITLE "9:cjc060_0989"
    INDEX 01 00:04:36
  TRACK 04 AUDIO
    TITLE "10:cjc060_0990"
    INDEX 01 00:05:56
  TRACK 05 AUDIO
    TITLE "10:cjc060_0991"
    INDEX 01 00:08:21
  TRACK 06 AUDIO
    TITLE "9:cjc060_0992"
    INDEX 01 00:11:37
  TRACK 07 AUDIO
    TITLE "10:cjc060_0993"
    INDEX 01 00:12:60
  TRACK 08 AUDIO
    TITLE "9:cjc060_0994"
    INDEX 01 00:16:48
  TRACK 09 AUDIO
    TITLE "10:cjc060_0995"
    INDEX 01 00:17:67
  TRACK 10 AUDIO
    TITLE "9:cjc060_0996"
    INDEX 01 00:21:51
  TRACK 11 AUDIO
    TITLE "10:cjc060_0997"
    INDEX 01 00:22:72
  TRACK 12 AUDIO
    TITLE "9:cjc060_0998"
    INDEX 01 00:26:36
  TRACK 13 AUDIO
    TITLE "10:cjc060_0999"
    INDEX 01 00:27:59
  TRACK 14 AUDIO
    TITLE "9:cjc060_1000"
    INDEX 01 00:31:29
  TRACK 15 AUDIO
    TITLE "10:cjc060_1001"
    INDEX 01 00:32:45
  TRACK 16 AUDIO
    TITLE "9:cjc060_1002"
    INDEX 01 00:35:43
  TRACK 17 AUDIO
    TITLE "10:cjc060_1003"
    INDEX 01 00:36:58
  TRACK 18 AUDIO
    TITLE "9:cjc060_1004"
    INDEX 01 00:39:58
  TRACK 19 AUDIO
    TITLE "10:cjc060_1005"
    INDEX 01 00:41:02
  TRACK 20 AUDIO
    TITLE "9:cjc060_1006"
    INDEX 01 00:44:01
  TRACK 21 AUDIO
    TITLE "10:cjc060_1007"
    INDEX 01 00:45:20
  TRACK 22 AUDIO
    TITLE "9:cjc060_1008"
    INDEX 01 00:49:18
  TRACK 23 AUDIO
    TITLE "10:cjc060_1009"
    INDEX 01 00:50:35
  TRACK 24 AUDIO
    TITLE "10:cjc060_1010"
    INDEX 01 00:52:16
  TRACK 25 AUDIO
    TITLE "9:cjc060_1011"
    INDEX 01 00:54:44
  TRACK 26 AUDIO
    TITLE "10:cjc060_1012"
    INDEX 01 00:55:63
  TRACK 27 AUDIO
    TITLE "9:cjc060_1013"
    INDEX 01 00:59:49
  TRACK 28 AUDIO
    TITLE "10:cjc060_1014"
    INDEX 01 01:00:74
  TRACK 29 AUDIO
    TITLE "9:cjc060_1015"
    INDEX 01 01:04:66
  TRACK 30 AUDIO
    TITLE "10:cjc060_1016"
    INDEX 01 01:06:20
  TRACK 31 AUDIO
    TITLE "9:cjc060_1017"
    INDEX 01 01:10:35
  TRACK 32 AUDIO
    TITLE "10:cjc060_1018"
    INDEX 01 01:11:51
  TRACK 33 AUDIO
    TITLE "9:cjc060_1019"
    INDEX 01 01:16:05
  TRACK 34 AUDIO
    TITLE "10:cjc060_1020"
    INDEX 01 01:17:16
  TRACK 35 AUDIO
    TITLE "9:cjc060_1021"
    INDEX 01 01:20:12
  TRACK 36 AUDIO
    TITLE "10:cjc060_1022"
    INDEX 01 01:21:20
  TRACK 37 AUDIO
    TITLE "9:cjc060_1023"
    INDEX 01 01:23:67
  TRACK 38 AUDIO
    TITLE "10:cjc060_1024"
    INDEX 01 01:25:09
  TRACK 39 AUDIO
    TITLE "9:cjc060_1025"
    INDEX 01 01:28:72
  TRACK 40 AUDIO
    TITLE "10:cjc060_1026"
    INDEX 01 01:30:24
  TRACK 41 AUDIO
    TITLE "9:cjc060_1027"
    INDEX 01 01:33:72
  TRACK 42 AUDIO
    TITLE "10:cjc060_1028"
    INDEX 01 01:35:06
  TRACK 43 AUDIO
    TITLE "9:cjc060_1029"
    INDEX 01 01:38:16
  TRACK 44 AUDIO
    TITLE "10:cjc060_1030"
    INDEX 01 01:39:43
  TRACK 45 AUDIO
    TITLE "9:cjc060_1031"
    INDEX 01 01:42:71
  TRACK 46 AUDIO
    TITLE "10:cjc060_1032"
    INDEX 01 01:44:13
  TRACK 47 AUDIO
    TITLE "9:cjc060_1033"
    INDEX 01 01:48:11
  TRACK 48 AUDIO
    TITLE "10:cjc060_1034"
    INDEX 01 01:49:32
  TRACK 49 AUDIO
    TITLE "9:cjc060_1035"
    INDEX 01 01:53:16
  TRACK 50 AUDIO
    TITLE "10:cjc060_1036"
    INDEX 01 01:54:42
  TRACK 51 AUDIO
    TITLE "9:cjc060_1037"
    INDEX 01 01:58:46
  TRACK 52 AUDIO
    TITLE "10:cjc060_1038"
    INDEX 01 02:00:10
  TRACK 53 AUDIO
    TITLE "9:cjc060_1039"
    INDEX 01 02:03:65
  TRACK 54 AUDIO
    TITLE "10:cjc060_1040"
    INDEX 01 02:05:07
  TRACK 55 AUDIO
    TITLE "9:cjc060_1041"
    INDEX 01 02:08:62
  TRACK 56 AUDIO
    TITLE "10:cjc060_1042"
    INDEX 01 02:09:71
  TRACK 57 AUDIO
    TITLE "9:cjc060_1043"
    INDEX 01 02:13:57
  TRACK 58 AUDIO
    TITLE "10:cjc060_1044"
    INDEX 01 02:15:05
  TRACK 59 AUDIO
    TITLE "9:cjc060_1045"
    INDEX 01 02:18:65
  TRACK 60 AUDIO
    TITLE "10:cjc060_1046"
    INDEX 01 02:20:07
  TRACK 61 AUDIO
    TITLE "9:cjc060_1047"
    INDEX 01 02:24:40
  TRACK 62 AUDIO
    TITLE "10:cjc060_1048"
    INDEX 01 02:25:65
  TRACK 63 AUDIO
    TITLE "9:cjc060_1049"
    INDEX 01 02:30:50
  TRACK 64 AUDIO
    TITLE "10:cjc060_1050"
    INDEX 01 02:32:02
  TRACK 65 AUDIO
    TITLE "9:cjc060_1051"
    INDEX 01 02:36:23
  TRACK 66 AUDIO
    TITLE "10:cjc060_1052"
    INDEX 01 02:37:42
  TRACK 67 AUDIO
    TITLE "9:cjc060_1053"
    INDEX 01 02:41:50
  TRACK 68 AUDIO
    TITLE "10:cjc060_1054"
    INDEX 01 02:42:71
  TRACK 69 AUDIO
    TITLE "9:cjc060_1055"
    INDEX 01 02:46:08
  TRACK 70 AUDIO
    TITLE "10:cjc060_1056"
    INDEX 01 02:47:47
  TRACK 71 AUDIO
    TITLE "9:cjc060_1057"
    INDEX 01 02:50:43
  TRACK 72 AUDIO
    TITLE "10:cjc060_1058"
    INDEX 01 02:51:62
  TRACK 73 AUDIO
    TITLE "9:cjc060_1059"
    INDEX 01 02:55:28
  TRACK 74 AUDIO
    TITLE "10:cjc060_1060"
    INDEX 01 02:56:48
  TRACK 75 AUDIO
    TITLE "9:cjc060_1061"
    INDEX 01 02:59:73
  TRACK 76 AUDIO
    TITLE "10:cjc060_1062"
    INDEX 01 03:01:19
  TRACK 77 AUDIO
    TITLE "0:"
    INDEX 01 03:04:27
